<svg aria-hidden="true" style="position:absolute;width:0;height:0;overflow:hidden" xmlns="http://www.w3.org/2000/svg"><defs><symbol id="icon-clear-day" viewBox="0 0 32 32"><path d="M16 9c-3.859 0-7 3.141-7 7s3.141 7 7 7 7-3.141 7-7-3.141-7-7-7zm0 12c-2.762 0-5-2.238-5-5s2.238-5 5-5 5 2.238 5 5-2.238 5-5 5zm0-14a1 1 0 0 0 1-1V4a1 1 0 0 0-2 0v2a1 1 0 0 0 1 1zm0 18a1 1 0 0 0-1 1v2a1 1 0 0 0 2 0v-2a1 1 0 0 0-1-1zm7.777-15.365 1.414-1.414a.999.999 0 1 0-1.414-1.414l-1.414 1.414a.999.999 0 1 0 1.414 1.414zM8.223 22.365l-1.414 1.414a.999.999 0 1 0 1.414 1.414l1.414-1.414a.999.999 0 1 0-1.414-1.414zM7 16a1 1 0 0 0-1-1H4a1 1 0 0 0 0 2h2a1 1 0 0 0 1-1zm21-1h-2a1 1 0 0 0 0 2h2a1 1 0 0 0 0-2zM8.221 9.635a.999.999 0 1 0 1.414-1.414L8.221 6.807a.999.999 0 1 0-1.414 1.414l1.414 1.414zm15.558 12.728a.999.999 0 1 0-1.414 1.414l1.414 1.414a.999.999 0 1 0 1.414-1.414l-1.414-1.414z"/></symbol><symbol id="icon-clear-night" viewBox="0 0 32 32"><path d="M21.866 21.447c-3.117 3.12-8.193 3.12-11.313 0s-3.12-8.195 0-11.314a7.952 7.952 0 0 1 2.989-1.863.998.998 0 0 1 1.039.237.995.995 0 0 1 .237 1.039c-.784 2.211-.25 4.604 1.391 6.245 1.638 1.639 4.031 2.172 6.245 1.391a.996.996 0 0 1 1.039.237.995.995 0 0 1 .236 1.039 7.907 7.907 0 0 1-1.863 2.989zm-9.899-9.9a6.007 6.007 0 0 0 0 8.486c2.5 2.501 6.758 2.276 8.937-.51-2.247.141-4.461-.671-6.109-2.318s-2.458-3.861-2.318-6.108c-.18.141-.35.29-.51.451z"/></symbol><symbol id="icon-cloudy-day" viewBox="0 0 32 32"><path d="M13 4a1 1 0 0 0 1-1V1a1 1 0 0 0-2 0v2a1 1 0 0 0 1 1zm7.777 2.635 1.414-1.414a.999.999 0 1 0-1.414-1.414l-1.414 1.414a.999.999 0 1 0 1.414 1.414zM1 14h2a1 1 0 0 0 0-2H1a1 1 0 0 0 0 2zm21-1a1 1 0 0 0 1 1h2a1 1 0 0 0 0-2h-2a1 1 0 0 0-1 1zM5.221 6.635a.999.999 0 1 0 1.414-1.414L5.221 3.807a.999.999 0 1 0-1.414 1.414l1.414 1.414zM25 16c-.332 0-.66.023-.987.07a9.95 9.95 0 0 0-4.029-3.219C19.903 9.062 16.808 5.999 13 5.999c-3.859 0-7 3.141-7 7 0 1.09.271 2.109.719 3.027C2.992 16.178 0 19.237 0 22.999c0 3.859 3.141 7 7 7 .856 0 1.693-.156 2.482-.458A9.906 9.906 0 0 0 16 31.999a9.9 9.9 0 0 0 6.518-2.458 6.926 6.926 0 0 0 2.482.458c3.859 0 7-3.141 7-7s-3.141-7-7-7zM13 8c2.488 0 4.535 1.823 4.919 4.203A9.786 9.786 0 0 0 16 12a9.898 9.898 0 0 0-7.398 3.328A4.937 4.937 0 0 1 8 13a5 5 0 0 1 5-5zm12 20a4.97 4.97 0 0 1-2.871-.917C20.662 28.851 18.477 30 16 30s-4.662-1.148-6.129-2.917A4.968 4.968 0 0 1 7 28c-2.762 0-5-2.238-5-5s2.238-5 5-5c.484 0 .941.091 1.383.221.176.049.354.089.52.158a8.054 8.054 0 0 1 .999-1.484C11.363 15.137 13.536 14 16.001 14c.633 0 1.24.091 1.828.232.66.156 1.284.393 1.865.706a8.074 8.074 0 0 1 3.404 3.441A5 5 0 0 1 30.002 23a5 5 0 0 1-5 5z"/></symbol><symbol id="icon-cloudy-night" viewBox="0 0 32 32"><path d="M27.191 16.385c.305-.227.613-.449.889-.725a7.908 7.908 0 0 0 1.862-2.991.991.991 0 0 0-.236-1.039.996.996 0 0 0-1.039-.237c-2.212.781-4.605.25-6.244-1.391-1.641-1.641-2.174-4.033-1.391-6.244a1 1 0 0 0-1.276-1.277 7.943 7.943 0 0 0-2.99 1.864c-2.096 2.094-2.749 5.063-2.03 7.737a9.916 9.916 0 0 0-6.751 3.987 6.918 6.918 0 0 0-.987-.07c-3.859 0-7 3.141-7 7s3.141 7 7 7c.856 0 1.693-.156 2.482-.458a9.906 9.906 0 0 0 6.518 2.458 9.9 9.9 0 0 0 6.518-2.458 6.926 6.926 0 0 0 2.482.458c3.859 0 7-3.141 7-7 0-3.09-2.026-5.689-4.809-6.615zM18.182 5.76a5.35 5.35 0 0 1 .509-.452 7.897 7.897 0 0 0 2.319 6.108 7.909 7.909 0 0 0 6.109 2.319c-.862 1.099-2.05 1.783-3.32 2.074a9.896 9.896 0 0 0-6.997-3.762c-.767-2.122-.318-4.59 1.38-6.288zM25 28a4.97 4.97 0 0 1-2.871-.917C20.662 28.851 18.477 30 16 30s-4.662-1.148-6.129-2.917A4.968 4.968 0 0 1 7 28c-2.762 0-5-2.238-5-5s2.238-5 5-5c.676 0 1.316.137 1.902.379 1.262-2.46 3.734-4.181 6.645-4.346.152-.009.301-.033.453-.033a7.91 7.91 0 0 1 4.981 1.777 8.101 8.101 0 0 1 1.863 2.181c.083.141.177.273.253.421A5 5 0 0 1 30.001 23a5 5 0 0 1-5 5z"/></symbol><symbol id="icon-cloudy" viewBox="0 0 32 32"><path d="M25 10c-.332 0-.66.023-.987.07C22.146 7.526 19.199 6 16 6s-6.145 1.526-8.013 4.07A6.918 6.918 0 0 0 7 10c-3.859 0-7 3.141-7 7s3.141 7 7 7c.856 0 1.693-.156 2.482-.458A9.906 9.906 0 0 0 16 26a9.9 9.9 0 0 0 6.518-2.458A6.926 6.926 0 0 0 25 24c3.859 0 7-3.141 7-7s-3.141-7-7-7zm0 12a4.97 4.97 0 0 1-2.871-.917C20.662 22.851 18.477 24 16 24s-4.662-1.148-6.129-2.917A4.968 4.968 0 0 1 7 22c-2.762 0-5-2.238-5-5s2.238-5 5-5c.676 0 1.316.138 1.902.38C10.229 9.792 12.893 8 16 8s5.771 1.792 7.096 4.38A4.983 4.983 0 0 1 25 12c2.762 0 5 2.238 5 5s-2.238 5-5 5z"/></symbol><symbol id="icon-rainy" viewBox="0 0 32 32"><path d="M25 4c-.332 0-.66.023-.987.07C22.146 1.526 19.199 0 16 0S9.855 1.526 7.987 4.07A6.918 6.918 0 0 0 7 4c-3.859 0-7 3.141-7 7s3.141 7 7 7c.856 0 1.693-.156 2.482-.458A9.906 9.906 0 0 0 16 20a9.9 9.9 0 0 0 6.518-2.458A6.926 6.926 0 0 0 25 18c3.859 0 7-3.141 7-7s-3.141-7-7-7zm0 12a4.97 4.97 0 0 1-2.871-.917C20.662 16.851 18.477 18 16 18s-4.662-1.148-6.129-2.917A4.968 4.968 0 0 1 7 16c-2.762 0-5-2.238-5-5s2.238-5 5-5c.676 0 1.316.138 1.902.38C10.229 3.792 12.893 2 16 2s5.771 1.792 7.096 4.38A4.983 4.983 0 0 1 25 6c2.762 0 5 2.238 5 5s-2.238 5-5 5zM14.063 30a2 2 0 1 0 4 0c0-1.105-2-4-2-4s-2 2.895-2 4zM22 28a2 2 0 1 0 4 0c0-1.105-2-4-2-4s-2 2.895-2 4zM6 24c0 1.105.894 2 2 2s2-.895 2-2-2-4-2-4-2 2.895-2 4z"/></symbol><symbol id="icon-snowy" viewBox="0 0 32 32"><path d="m20.378 27.73-1.125-.648c.034-.195.06-.394.06-.602s-.026-.406-.063-.602l1.128-.65c.526-.307.706-.983.404-1.506a1.102 1.102 0 0 0-1.508-.406l-1.137.656a3.325 3.325 0 0 0-1.031-.6v-1.306a1.105 1.105 0 0 0-2.209 0v1.305a3.301 3.301 0 0 0-1.033.602l-1.134-.656a1.104 1.104 0 1 0-1.104 1.913l1.122.648c-.037.197-.06.396-.06.603s.023.406.06.602l-1.122.648a1.103 1.103 0 1 0 1.102 1.914l1.135-.652c.305.258.65.461 1.034.598V30.9c0 .609.495 1.102 1.104 1.102s1.105-.492 1.105-1.102v-1.309c.383-.137.73-.34 1.033-.602l1.135.656a1.104 1.104 0 1 0 1.104-1.914zM16 27.586a1.105 1.105 0 1 1 0-2.206 1.105 1.105 0 0 1 0 2.206zm13.635-2.82-.755-.201a1.892 1.892 0 0 0-.181-.686l.548-.548a.655.655 0 1 0-.927-.928l-.549.547a1.985 1.985 0 0 0-.685-.18l-.201-.754a.658.658 0 0 0-.805-.465.66.66 0 0 0-.464.805l.201.744a2.1 2.1 0 0 0-.281.229 2.272 2.272 0 0 0-.227.279l-.744-.201a.66.66 0 0 0-.806.465.66.66 0 0 0 .464.805l.75.202c.021.236.081.466.186.685l-.551.551a.654.654 0 0 0 .003.926.654.654 0 0 0 .924.003l.552-.552c.216.107.448.167.688.185l.198.751a.658.658 0 1 0 1.271-.342l-.201-.744c.094-.066.19-.141.279-.227.086-.087.159-.184.227-.28l.745.201a.656.656 0 0 0 .341-1.269zm-2.24.418a.657.657 0 0 1-.93-.928.66.66 0 0 1 .93 0 .66.66 0 0 1 0 .928zM7.434 21.406l-.742.199a2.425 2.425 0 0 0-.228-.277 2.06 2.06 0 0 0-.28-.227l.199-.746a.656.656 0 1 0-1.266-.339l-.203.754c-.238.02-.466.078-.684.181l-.551-.548a.657.657 0 0 0-.927.928l.548.548a1.95 1.95 0 0 0-.181.686l-.753.201a.657.657 0 1 0 .34 1.269l.742-.202a1.786 1.786 0 0 0 .508.508l-.199.744a.654.654 0 1 0 1.265.342l.203-.75a1.96 1.96 0 0 0 .688-.184l.549.549a.654.654 0 0 0 .927-.003.654.654 0 0 0 0-.926l-.551-.551c.106-.216.168-.449.184-.688l.754-.199a.658.658 0 0 0-.344-1.27zm-1.899 1.779a.66.66 0 0 1-.93 0 .66.66 0 0 1 0-.927.656.656 0 1 1 .93.927zM32 11c0-3.859-3.141-7-7-7-.332 0-.66.023-.987.07C22.146 1.526 19.199 0 16 0S9.855 1.526 7.987 4.07A6.918 6.918 0 0 0 7 4c-3.859 0-7 3.141-7 7s3.141 7 7 7c.856 0 1.693-.156 2.482-.458A9.906 9.906 0 0 0 16 20a9.9 9.9 0 0 0 6.518-2.458A6.926 6.926 0 0 0 25 18c3.859 0 7-3.141 7-7zm-9.871 4.083C20.662 16.851 18.477 18 16 18s-4.662-1.148-6.129-2.917A4.968 4.968 0 0 1 7 16c-2.762 0-5-2.238-5-5s2.238-5 5-5c.676 0 1.316.138 1.902.38C10.229 3.792 12.893 2 16 2s5.771 1.792 7.096 4.38A4.983 4.983 0 0 1 25 6c2.762 0 5 2.238 5 5s-2.238 5-5 5a4.97 4.97 0 0 1-2.871-.917z"/></symbol><symbol id="icon-lightning" viewBox="0 0 32 32"><path d="m12 24 2 2-2 6 6-6-2-2 2-4-6 4zM32 8.427a5.577 5.577 0 0 0-6.02-5.553A7.647 7.647 0 0 0 20 0a7.648 7.648 0 0 0-5.98 2.874 5.577 5.577 0 0 0-6.019 5.553c0 .322.043.633.094.94-.034.044-.074.085-.107.13a6.918 6.918 0 0 0-.987-.07c-3.859 0-7 3.141-7 7s3.141 7 7 7c.856 0 1.693-.156 2.482-.458.069.06.151.102.221.16l1.77-1.18c-.59-.418-1.141-.883-1.602-1.438a4.973 4.973 0 0 1-2.871.915 5 5 0 0 1 0-10c.676 0 1.316.138 1.902.38.035-.068.078-.125.113-.19a8.152 8.152 0 0 1 1.292-1.753c1.443-1.493 3.448-2.438 5.693-2.438 3.107 0 5.771 1.792 7.096 4.38.353-.146.729-.24 1.117-.302l.787-.078c.771 0 1.492.19 2.145.5a4.993 4.993 0 0 1 1.79 1.45 4.958 4.958 0 0 1 1.065 3.05c0 2.763-2.238 5-5 5a4.983 4.983 0 0 1-2.871-.915c-.875 1.055-2.027 1.848-3.322 2.348l-.374.746 1.141 1.141a10.034 10.034 0 0 0 2.944-1.777 6.926 6.926 0 0 0 2.482.458c3.859 0 7-3.141 7-7 0-1.604-.565-3.068-1.479-4.25a5.525 5.525 0 0 0 1.479-3.75zm-2.902 2.352a6.94 6.94 0 0 0-5.085-1.282A9.918 9.918 0 0 0 16 5.427a9.876 9.876 0 0 0-5.809 1.897 3.56 3.56 0 0 1 3.379-2.467c.484 0 .941.098 1.359.271C15.878 3.279 17.781 2 19.999 2s4.122 1.279 5.068 3.128a3.57 3.57 0 0 1 4.932 3.299c0 .906-.348 1.723-.902 2.352z"/></symbol><symbol id="icon-clear-day-full" viewBox="0 0 32 32"><path d="M16 9c-3.859 0-7 3.141-7 7s3.141 7 7 7 7-3.141 7-7-3.141-7-7-7zm0-2a1 1 0 0 0 1-1V4a1 1 0 0 0-2 0v2a1 1 0 0 0 1 1zm0 18a1 1 0 0 0-1 1v2a1 1 0 1 0 2 0v-2a1 1 0 0 0-1-1zm7.776-15.365 1.414-1.414a.999.999 0 1 0-1.414-1.414l-1.414 1.414a.999.999 0 1 0 1.414 1.414zM8.221 22.366 6.807 23.78a.999.999 0 1 0 1.414 1.414l1.414-1.414c.391-.393.391-1.023 0-1.414s-1.023-.393-1.414 0zM7 16a1 1 0 0 0-1-1H4a1 1 0 1 0 0 2h2a1 1 0 0 0 1-1zm21-1h-2a1 1 0 1 0 0 2h2a1 1 0 1 0 0-2zM8.22 9.635a.999.999 0 1 0 1.414-1.414L8.22 6.807a.999.999 0 1 0-1.414 1.414L8.22 9.635zm15.559 12.728c-.393-.391-1.023-.391-1.414 0s-.393 1.023 0 1.414l1.414 1.414a.999.999 0 1 0 1.414-1.414l-1.414-1.414z"/></symbol><symbol id="icon-clear-night-full" viewBox="0 0 32 32"><path d="M15.505 16.496c-1.97-1.971-2.499-4.819-1.626-7.284a6.946 6.946 0 0 0-2.616 1.626 7 7 0 0 0 9.898 9.9 6.896 6.896 0 0 0 1.626-2.616c-2.463.872-5.312.344-7.283-1.626z"/></symbol><symbol id="icon-cloudy-day-full" viewBox="0 0 32 32"><path d="M13 4a1 1 0 0 0 1-1V1a1 1 0 0 0-2 0v2a1 1 0 0 0 1 1zm7.777 2.635 1.414-1.414a.999.999 0 1 0-1.414-1.414l-1.414 1.414a.999.999 0 1 0 1.414 1.414zM1 14h2a1 1 0 0 0 0-2H1a1 1 0 0 0 0 2zm21-1a1 1 0 0 0 1 1h2a1 1 0 0 0 0-2h-2a1 1 0 0 0-1 1zM5.221 6.635a.999.999 0 1 0 1.414-1.414L5.221 3.807a.999.999 0 1 0-1.414 1.414l1.414 1.414zM25 16c-.332 0-.66.023-.987.07a9.95 9.95 0 0 0-4.029-3.219C19.903 9.062 16.808 5.999 13 5.999c-3.859 0-7 3.141-7 7 0 1.09.271 2.109.719 3.027C2.992 16.178 0 19.237 0 22.999c0 3.859 3.141 7 7 7 .856 0 1.693-.156 2.482-.458A9.906 9.906 0 0 0 16 31.999a9.9 9.9 0 0 0 6.518-2.458 6.926 6.926 0 0 0 2.482.458c3.859 0 7-3.141 7-7s-3.141-7-7-7zm-9-4a9.898 9.898 0 0 0-7.398 3.328A4.937 4.937 0 0 1 8 13a5 5 0 0 1 5-5c2.488 0 4.535 1.823 4.919 4.203A9.786 9.786 0 0 0 16 12z"/></symbol><symbol id="icon-cloudy-night-full" viewBox="0 0 32 32"><path d="M27.191 16.385c.305-.227.613-.449.889-.725a7.908 7.908 0 0 0 1.862-2.991.991.991 0 0 0-.236-1.039.996.996 0 0 0-1.039-.237c-2.212.781-4.605.25-6.244-1.391-1.641-1.641-2.174-4.033-1.391-6.244a1 1 0 0 0-1.276-1.277 7.932 7.932 0 0 0-2.99 1.865c-2.096 2.094-2.749 5.063-2.03 7.737a9.916 9.916 0 0 0-6.751 3.987 6.918 6.918 0 0 0-.987-.07c-3.859 0-7 3.141-7 7s3.141 7 7 7c.856 0 1.693-.156 2.482-.458A9.906 9.906 0 0 0 15.998 32a9.9 9.9 0 0 0 6.518-2.458 6.926 6.926 0 0 0 2.482.458c3.859 0 7-3.141 7-7 0-3.09-2.026-5.689-4.809-6.615zM18.182 5.76a5.35 5.35 0 0 1 .509-.452 7.897 7.897 0 0 0 2.319 6.108 7.909 7.909 0 0 0 6.109 2.319c-.862 1.099-2.05 1.783-3.32 2.074a9.896 9.896 0 0 0-6.997-3.762c-.767-2.122-.318-4.59 1.38-6.288z"/></symbol><symbol id="icon-cloudy-full" viewBox="0 0 32 32"><path d="M25 10c-.332 0-.66.023-.987.07C22.146 7.526 19.199 6 16 6s-6.145 1.526-8.013 4.07A6.918 6.918 0 0 0 7 10c-3.859 0-7 3.141-7 7s3.141 7 7 7c.856 0 1.693-.156 2.482-.458A9.906 9.906 0 0 0 16 26a9.9 9.9 0 0 0 6.518-2.458A6.926 6.926 0 0 0 25 24c3.859 0 7-3.141 7-7s-3.141-7-7-7z"/></symbol><symbol id="icon-rainy-full" viewBox="0 0 32 32"><path d="M25 4c-.332 0-.66.023-.987.07C22.146 1.526 19.199 0 16 0S9.855 1.526 7.987 4.07A6.918 6.918 0 0 0 7 4c-3.859 0-7 3.141-7 7s3.141 7 7 7c.856 0 1.693-.156 2.482-.458A9.906 9.906 0 0 0 16 20a9.9 9.9 0 0 0 6.518-2.458A6.926 6.926 0 0 0 25 18c3.859 0 7-3.141 7-7s-3.141-7-7-7zM14.063 30a2 2 0 1 0 4 0c0-1.105-2-4-2-4s-2 2.895-2 4zM22 28a2 2 0 1 0 4 0c0-1.105-2-4-2-4s-2 2.895-2 4zM6 24c0 1.105.894 2 2 2s2-.895 2-2-2-4-2-4-2 2.895-2 4z"/></symbol><symbol id="icon-snowy-full" viewBox="0 0 32 32"><path d="m20.378 27.73-1.125-.648c.034-.195.06-.394.06-.602s-.026-.406-.063-.602l1.128-.65c.526-.307.706-.983.404-1.506a1.102 1.102 0 0 0-1.508-.406l-1.137.656a3.325 3.325 0 0 0-1.031-.6v-1.306a1.105 1.105 0 0 0-2.209 0v1.305a3.301 3.301 0 0 0-1.033.602l-1.134-.656a1.104 1.104 0 1 0-1.104 1.913l1.122.648c-.037.197-.06.396-.06.603s.023.406.06.602l-1.122.648a1.103 1.103 0 1 0 1.102 1.914l1.135-.652c.305.258.65.461 1.034.598V30.9c0 .609.495 1.102 1.104 1.102s1.105-.492 1.105-1.102v-1.309c.383-.137.73-.34 1.033-.602l1.135.656a1.104 1.104 0 1 0 1.104-1.914zM16 27.586a1.105 1.105 0 1 1 0-2.206 1.105 1.105 0 0 1 0 2.206zm13.635-2.82-.755-.201a1.892 1.892 0 0 0-.181-.686l.548-.548a.655.655 0 1 0-.927-.928l-.549.547a1.985 1.985 0 0 0-.685-.18l-.201-.754a.658.658 0 0 0-.805-.465.66.66 0 0 0-.464.805l.201.744a2.1 2.1 0 0 0-.281.229 2.272 2.272 0 0 0-.227.279l-.744-.201a.66.66 0 0 0-.806.465.66.66 0 0 0 .464.805l.75.202c.021.236.081.466.186.685l-.551.551a.654.654 0 0 0 .003.926.654.654 0 0 0 .924.003l.552-.552c.216.107.448.167.688.185l.198.751a.658.658 0 1 0 1.271-.342l-.201-.744c.094-.066.19-.141.279-.227.086-.087.159-.184.227-.28l.745.201a.656.656 0 0 0 .341-1.269zm-2.24.418a.657.657 0 0 1-.93-.928.66.66 0 0 1 .93 0 .66.66 0 0 1 0 .928zM7.434 21.406l-.742.199a2.425 2.425 0 0 0-.228-.277 2.06 2.06 0 0 0-.28-.227l.199-.746a.656.656 0 1 0-1.266-.339l-.203.754c-.238.02-.466.078-.684.181l-.551-.548a.657.657 0 0 0-.927.928l.548.548a1.95 1.95 0 0 0-.181.686l-.753.201a.657.657 0 1 0 .34 1.269l.742-.202a1.786 1.786 0 0 0 .508.508l-.199.744a.654.654 0 1 0 1.265.342l.203-.75a1.96 1.96 0 0 0 .688-.184l.549.549a.654.654 0 0 0 .927-.003.654.654 0 0 0 0-.926l-.551-.551c.106-.216.168-.449.184-.688l.754-.199a.658.658 0 0 0-.344-1.27zm-1.899 1.779a.66.66 0 0 1-.93 0 .66.66 0 0 1 0-.927.656.656 0 1 1 .93.927zM32 11c0-3.859-3.141-7-7-7-.332 0-.66.023-.987.07C22.146 1.526 19.199 0 16 0S9.855 1.526 7.987 4.07A6.918 6.918 0 0 0 7 4c-3.859 0-7 3.141-7 7s3.141 7 7 7c.856 0 1.693-.156 2.482-.458A9.906 9.906 0 0 0 16 20a9.9 9.9 0 0 0 6.518-2.458A6.926 6.926 0 0 0 25 18c3.859 0 7-3.141 7-7z"/></symbol><symbol id="icon-lightning-full" viewBox="0 0 32 32"><path d="M32 8.427a5.577 5.577 0 0 0-6.02-5.553A7.647 7.647 0 0 0 20 0a7.648 7.648 0 0 0-5.98 2.874 5.577 5.577 0 0 0-6.019 5.553c0 .322.043.633.094.94-.034.044-.074.085-.107.13a6.918 6.918 0 0 0-.987-.07c-3.859 0-7 3.141-7 7s3.141 7 7 7c.856 0 1.693-.156 2.482-.458 1.147 1 2.507 1.684 3.95 2.076l-1.432.956 2 2-2 4 6-4-2-2 .301-.599a9.89 9.89 0 0 0 6.217-2.432 6.926 6.926 0 0 0 2.482.458c3.859 0 7-3.141 7-7 0-1.604-.565-3.068-1.479-4.25a5.525 5.525 0 0 0 1.479-3.75z"/></symbol><symbol id="icon-spinner" viewBox="0 0 32 32"><path d="M16 9.472a1.865 1.865 0 0 1-1.865-1.865V2.011a1.865 1.865 0 0 1 3.73 0v5.596c0 1.03-.835 1.865-1.865 1.865zM16 31.155a1.166 1.166 0 0 1-1.166-1.166v-5.596a1.166 1.166 0 1 1 2.332 0v5.596c0 .644-.522 1.166-1.166 1.166zM11.805 10.48a1.749 1.749 0 0 1-1.516-.875L7.491 4.759A1.75 1.75 0 0 1 10.52 3.01l2.798 4.846a1.75 1.75 0 0 1-1.513 2.624zM22.995 29.164a1.05 1.05 0 0 1-.91-.525l-2.798-4.846a1.049 1.049 0 1 1 1.817-1.049l2.798 4.846a1.049 1.049 0 0 1-.908 1.574zM8.729 13.436c-.277 0-.557-.07-.814-.219l-4.846-2.798a1.631 1.631 0 1 1 1.632-2.826l4.846 2.798a1.631 1.631 0 0 1-.818 3.045zM28.114 23.927a.923.923 0 0 1-.465-.125l-4.846-2.798a.932.932 0 1 1 .933-1.615l4.846 2.798a.932.932 0 0 1-.468 1.74zM7.607 17.515H2.011a1.515 1.515 0 1 1 0-3.03h5.596a1.515 1.515 0 1 1 0 3.03zM29.989 16.933h-5.596a.933.933 0 0 1 0-1.866h5.596a.933.933 0 0 1 0 1.866zM3.886 24.394a1.399 1.399 0 0 1-.701-2.611l4.846-2.798a1.398 1.398 0 1 1 1.399 2.423l-4.846 2.798c-.22.127-.461.188-.698.188zM23.27 12.736a.934.934 0 0 1-.468-1.74l4.846-2.798a.933.933 0 0 1 .933 1.615l-4.846 2.798a.925.925 0 0 1-.465.125zM9.004 29.397a1.283 1.283 0 0 1-1.109-1.924l2.798-4.846a1.283 1.283 0 0 1 2.221 1.283l-2.798 4.846a1.281 1.281 0 0 1-1.112.641zM20.196 9.664a.932.932 0 0 1-.806-1.399l2.798-4.846a.932.932 0 1 1 1.615.933l-2.798 4.846a.932.932 0 0 1-.809.466z"/></symbol><symbol id="icon-search" viewBox="0 0 32 32"><path d="m31.008 27.231-7.58-6.447c-.784-.705-1.622-1.029-2.299-.998a11.954 11.954 0 0 0 2.87-7.787c0-6.627-5.373-12-12-12s-12 5.373-12 12 5.373 12 12 12c2.972 0 5.691-1.081 7.787-2.87-.031.677.293 1.515.998 2.299l6.447 7.58c1.104 1.226 2.907 1.33 4.007.23s.997-2.903-.23-4.007zM12 20a8 8 0 1 1 0-16 8 8 0 0 1 0 16z"/></symbol><symbol id="icon-cloud-fog" viewBox="0 0 32 32"><path d="M3.014 20.382a5.006 5.006 0 0 1 2.998-4.97 7.006 7.006 0 0 1-.001-.807.52.52 0 0 1 .021-.279 7 7 0 0 1 12.582-3.509 5.5 5.5 0 0 1 8.385 4.598 4.999 4.999 0 0 1 2.987 4.967.508.508 0 0 1-.038.338A5.005 5.005 0 0 1 25 25H7.999a4.996 4.996 0 0 1-4.949-4.283.495.495 0 0 1-.037-.335zM4 20h25c0-.345-.044-.68-.126-1H4.127c-.083.32-.127.655-.127 1zm.126 1c.092.355.231.691.41 1h23.927c.179-.31.319-.645.41-1H4.126zm4.402-10a6.057 6.057 0 0 0-.725 1h10.395a6.057 6.057 0 0 0-.725-1H8.529zm1.154-1h6.636c-.95-.632-2.091-1-3.318-1s-2.367.368-3.318 1zM7.35 12.975A5.934 5.934 0 0 0 7.083 14h18.661a4.482 4.482 0 0 0-.502-1H7.508a.517.517 0 0 1-.158-.025zM18.671 12h5.657c-.773-.625-1.757-1-2.829-1s-2.056.375-2.829 1zM7 15c0 .341.028.675.083 1h18.89a4.584 4.584 0 0 0 0-1H7zm-1.625 1.984c-.332.29-.617.633-.839 1.016h23.927a4.01 4.01 0 0 0-.839-1.016.473.473 0 0 1-.126.016H5.502a.518.518 0 0 1-.126-.016zM5.357 23c.706.622 1.633 1 2.645 1h16.994a3.988 3.988 0 0 0 2.646-1H5.356z"/></symbol></defs></svg>